<svg xmlns="http://www.w3.org/2000/svg" xmlns:xlink="http://www.w3.org/1999/xlink" width="1em" height="1em" preserveAspectRatio="xMidYMid meet" viewBox="0 0 24 24" style="-ms-transform: rotate(360deg); -webkit-transform: rotate(360deg); transform: rotate(360deg);"><path fill="none" stroke="currentColor" stroke-linecap="round" stroke-linejoin="round" stroke-width="2" d="M11 13c.5.5 2.13-.112 3.262-.5c1.46-.5 3.238 0 2.738-.5l-2-2s-4.5 2.5-4 3Zm-9 7c2 0 3-1 5-1s3 1 5 1s3-1 5-1s3 1 5 1M2 16c2 0 3-1 5-1s3 1 5 1s3-1 5-1s3 1 5 1M17.5 4l-5.278 3l3.278 3.5L12 12m7.222-2a1 1 0 1 0 0-2a1 1 0 0 0 0 2Z"/></svg>